<svg width="76" height="10" viewBox="0 0 76 10" fill="none" xmlns="http://www.w3.org/2000/svg">
<path d="M0.368 9V0.599999H3.512C4.224 0.599999 4.836 0.716 5.348 0.948C5.86 1.172 6.252 1.5 6.524 1.932C6.804 2.356 6.944 2.872 6.944 3.48C6.944 4.072 6.804 4.584 6.524 5.016C6.252 5.44 5.86 5.768 5.348 6C4.836 6.224 4.224 6.336 3.512 6.336H0.86L1.256 5.928V9H0.368ZM6.104 9L3.944 5.952H4.904L7.076 9H6.104ZM1.256 6L0.86 5.58H3.488C4.328 5.58 4.964 5.396 5.396 5.028C5.836 4.66 6.056 4.144 6.056 3.48C6.056 2.808 5.836 2.288 5.396 1.92C4.964 1.552 4.328 1.368 3.488 1.368H0.86L1.256 0.948V6ZM11.5359 9.06C10.8799 9.06 10.3039 8.924 9.80788 8.652C9.31188 8.372 8.92388 7.992 8.64388 7.512C8.36388 7.024 8.22388 6.468 8.22388 5.844C8.22388 5.22 8.35588 4.668 8.61988 4.188C8.89188 3.708 9.25988 3.332 9.72388 3.06C10.1959 2.78 10.7239 2.64 11.3079 2.64C11.8999 2.64 12.4239 2.776 12.8799 3.048C13.3439 3.312 13.7079 3.688 13.9719 4.176C14.2359 4.656 14.3679 5.212 14.3679 5.844C14.3679 5.884 14.3639 5.928 14.3559 5.976C14.3559 6.016 14.3559 6.06 14.3559 6.108H8.87188V5.472H13.8999L13.5639 5.724C13.5639 5.268 13.4639 4.864 13.2639 4.512C13.0719 4.152 12.8079 3.872 12.4719 3.672C12.1359 3.472 11.7479 3.372 11.3079 3.372C10.8759 3.372 10.4879 3.472 10.1439 3.672C9.79988 3.872 9.53188 4.152 9.33988 4.512C9.14788 4.872 9.05188 5.284 9.05188 5.748V5.88C9.05188 6.36 9.15588 6.784 9.36388 7.152C9.57988 7.512 9.87588 7.796 10.2519 8.004C10.6359 8.204 11.0719 8.304 11.5599 8.304C11.9439 8.304 12.2999 8.236 12.6279 8.1C12.9639 7.964 13.2519 7.756 13.4919 7.476L13.9719 8.028C13.6919 8.364 13.3399 8.62 12.9159 8.796C12.4999 8.972 12.0399 9.06 11.5359 9.06ZM19.8743 9V7.608L19.8383 7.38V5.052C19.8383 4.516 19.6863 4.104 19.3823 3.816C19.0863 3.528 18.6423 3.384 18.0503 3.384C17.6423 3.384 17.2543 3.452 16.8863 3.588C16.5183 3.724 16.2063 3.904 15.9503 4.128L15.5663 3.492C15.8863 3.22 16.2703 3.012 16.7183 2.868C17.1663 2.716 17.6383 2.64 18.1343 2.64C18.9503 2.64 19.5783 2.844 20.0183 3.252C20.4663 3.652 20.6903 4.264 20.6903 5.088V9H19.8743ZM17.7023 9.06C17.2303 9.06 16.8183 8.984 16.4663 8.832C16.1223 8.672 15.8583 8.456 15.6743 8.184C15.4903 7.904 15.3983 7.584 15.3983 7.224C15.3983 6.896 15.4743 6.6 15.6263 6.336C15.7863 6.064 16.0423 5.848 16.3943 5.688C16.7543 5.52 17.2343 5.436 17.8343 5.436H20.0063V6.072H17.8583C17.2503 6.072 16.8263 6.18 16.5863 6.396C16.3543 6.612 16.2383 6.88 16.2383 7.2C16.2383 7.56 16.3783 7.848 16.6583 8.064C16.9383 8.28 17.3303 8.388 17.8343 8.388C18.3143 8.388 18.7263 8.28 19.0703 8.064C19.4223 7.84 19.6783 7.52 19.8383 7.104L20.0303 7.692C19.8703 8.108 19.5903 8.44 19.1903 8.688C18.7983 8.936 18.3023 9.06 17.7023 9.06ZM25.5124 9.06C24.9124 9.06 24.3724 8.924 23.8924 8.652C23.4204 8.38 23.0484 8.004 22.7764 7.524C22.5044 7.036 22.3684 6.476 22.3684 5.844C22.3684 5.204 22.5044 4.644 22.7764 4.164C23.0484 3.684 23.4204 3.312 23.8924 3.048C24.3724 2.776 24.9124 2.64 25.5124 2.64C26.0644 2.64 26.5564 2.764 26.9884 3.012C27.4284 3.26 27.7764 3.624 28.0324 4.104C28.2964 4.576 28.4284 5.156 28.4284 5.844C28.4284 6.524 28.3004 7.104 28.0444 7.584C27.7884 8.064 27.4404 8.432 27.0004 8.688C26.5684 8.936 26.0724 9.06 25.5124 9.06ZM25.5724 8.304C26.0204 8.304 26.4204 8.204 26.7724 8.004C27.1324 7.796 27.4124 7.508 27.6124 7.14C27.8204 6.764 27.9244 6.332 27.9244 5.844C27.9244 5.348 27.8204 4.916 27.6124 4.548C27.4124 4.18 27.1324 3.896 26.7724 3.696C26.4204 3.488 26.0204 3.384 25.5724 3.384C25.1324 3.384 24.7364 3.488 24.3844 3.696C24.0324 3.896 23.7524 4.18 23.5444 4.548C23.3364 4.916 23.2324 5.348 23.2324 5.844C23.2324 6.332 23.3364 6.764 23.5444 7.14C23.7524 7.508 24.0324 7.796 24.3844 8.004C24.7364 8.204 25.1324 8.304 25.5724 8.304ZM27.9484 9V7.104L28.0324 5.832L27.9124 4.56V0.0959995H28.7644V9H27.9484ZM42.1498 2.64C42.6618 2.64 43.1058 2.74 43.4818 2.94C43.8658 3.132 44.1618 3.428 44.3698 3.828C44.5858 4.228 44.6938 4.732 44.6938 5.34V9H43.8418V5.424C43.8418 4.76 43.6818 4.26 43.3618 3.924C43.0498 3.58 42.6058 3.408 42.0298 3.408C41.5978 3.408 41.2218 3.5 40.9018 3.684C40.5898 3.86 40.3458 4.12 40.1698 4.464C40.0018 4.8 39.9178 5.208 39.9178 5.688V9H39.0658V5.424C39.0658 4.76 38.9058 4.26 38.5858 3.924C38.2658 3.58 37.8178 3.408 37.2418 3.408C36.8178 3.408 36.4458 3.5 36.1258 3.684C35.8058 3.86 35.5578 4.12 35.3818 4.464C35.2138 4.8 35.1298 5.208 35.1298 5.688V9H34.2778V2.7H35.0938V4.404L34.9618 4.104C35.1538 3.648 35.4618 3.292 35.8858 3.036C36.3178 2.772 36.8258 2.64 37.4098 2.64C38.0258 2.64 38.5498 2.796 38.9818 3.108C39.4138 3.412 39.6938 3.872 39.8218 4.488L39.4858 4.356C39.6698 3.844 39.9938 3.432 40.4578 3.12C40.9298 2.8 41.4938 2.64 42.1498 2.64ZM49.5724 9.06C48.9644 9.06 48.4164 8.924 47.9284 8.652C47.4484 8.372 47.0684 7.992 46.7884 7.512C46.5084 7.024 46.3684 6.468 46.3684 5.844C46.3684 5.212 46.5084 4.656 46.7884 4.176C47.0684 3.696 47.4484 3.32 47.9284 3.048C48.4084 2.776 48.9564 2.64 49.5724 2.64C50.1964 2.64 50.7484 2.776 51.2284 3.048C51.7164 3.32 52.0964 3.696 52.3684 4.176C52.6484 4.656 52.7884 5.212 52.7884 5.844C52.7884 6.468 52.6484 7.024 52.3684 7.512C52.0964 7.992 51.7164 8.372 51.2284 8.652C50.7404 8.924 50.1884 9.06 49.5724 9.06ZM49.5724 8.304C50.0284 8.304 50.4324 8.204 50.7844 8.004C51.1364 7.796 51.4124 7.508 51.6124 7.14C51.8204 6.764 51.9244 6.332 51.9244 5.844C51.9244 5.348 51.8204 4.916 51.6124 4.548C51.4124 4.18 51.1364 3.896 50.7844 3.696C50.4324 3.488 50.0324 3.384 49.5844 3.384C49.1364 3.384 48.7364 3.488 48.3844 3.696C48.0324 3.896 47.7524 4.18 47.5444 4.548C47.3364 4.916 47.2324 5.348 47.2324 5.844C47.2324 6.332 47.3364 6.764 47.5444 7.14C47.7524 7.508 48.0324 7.796 48.3844 8.004C48.7364 8.204 49.1324 8.304 49.5724 8.304ZM54.5278 9V2.7H55.3438V4.416L55.2598 4.116C55.4358 3.636 55.7318 3.272 56.1478 3.024C56.5638 2.768 57.0798 2.64 57.6958 2.64V3.468C57.6638 3.468 57.6318 3.468 57.5998 3.468C57.5678 3.46 57.5358 3.456 57.5038 3.456C56.8398 3.456 56.3198 3.66 55.9438 4.068C55.5678 4.468 55.3798 5.04 55.3798 5.784V9H54.5278ZM61.8679 9.06C61.2119 9.06 60.6359 8.924 60.1399 8.652C59.6439 8.372 59.2559 7.992 58.9759 7.512C58.6959 7.024 58.5559 6.468 58.5559 5.844C58.5559 5.22 58.6879 4.668 58.9519 4.188C59.2239 3.708 59.5919 3.332 60.0559 3.06C60.5279 2.78 61.0559 2.64 61.6399 2.64C62.2319 2.64 62.7559 2.776 63.2119 3.048C63.6759 3.312 64.0399 3.688 64.3039 4.176C64.5679 4.656 64.6999 5.212 64.6999 5.844C64.6999 5.884 64.6959 5.928 64.6879 5.976C64.6879 6.016 64.6879 6.06 64.6879 6.108H59.2039V5.472H64.2319L63.8959 5.724C63.8959 5.268 63.7959 4.864 63.5959 4.512C63.4039 4.152 63.1399 3.872 62.8039 3.672C62.4679 3.472 62.0799 3.372 61.6399 3.372C61.2079 3.372 60.8199 3.472 60.4759 3.672C60.1319 3.872 59.8639 4.152 59.6719 4.512C59.4799 4.872 59.3839 5.284 59.3839 5.748V5.88C59.3839 6.36 59.4879 6.784 59.6959 7.152C59.9119 7.512 60.2079 7.796 60.5839 8.004C60.9679 8.204 61.4039 8.304 61.8919 8.304C62.2759 8.304 62.6319 8.236 62.9599 8.1C63.2959 7.964 63.5839 7.756 63.8239 7.476L64.3039 8.028C64.0239 8.364 63.6719 8.62 63.2479 8.796C62.8319 8.972 62.3719 9.06 61.8679 9.06ZM69.6587 9.06C69.4827 9.06 69.3307 8.996 69.2027 8.868C69.0827 8.74 69.0227 8.584 69.0227 8.4C69.0227 8.208 69.0827 8.052 69.2027 7.932C69.3307 7.812 69.4827 7.752 69.6587 7.752C69.8347 7.752 69.9827 7.812 70.1027 7.932C70.2307 8.052 70.2947 8.208 70.2947 8.4C70.2947 8.584 70.2307 8.74 70.1027 8.868C69.9827 8.996 69.8347 9.06 69.6587 9.06ZM72.2017 9.06C72.0257 9.06 71.8737 8.996 71.7457 8.868C71.6257 8.74 71.5657 8.584 71.5657 8.4C71.5657 8.208 71.6257 8.052 71.7457 7.932C71.8737 7.812 72.0257 7.752 72.2017 7.752C72.3777 7.752 72.5257 7.812 72.6457 7.932C72.7737 8.052 72.8377 8.208 72.8377 8.4C72.8377 8.584 72.7737 8.74 72.6457 8.868C72.5257 8.996 72.3777 9.06 72.2017 9.06ZM74.7447 9.06C74.5687 9.06 74.4167 8.996 74.2887 8.868C74.1687 8.74 74.1087 8.584 74.1087 8.4C74.1087 8.208 74.1687 8.052 74.2887 7.932C74.4167 7.812 74.5687 7.752 74.7447 7.752C74.9207 7.752 75.0687 7.812 75.1887 7.932C75.3167 8.052 75.3807 8.208 75.3807 8.4C75.3807 8.584 75.3167 8.74 75.1887 8.868C75.0687 8.996 74.9207 9.06 74.7447 9.06Z" fill="#FF8500"/>
</svg>
