<svg width="19" height="18" viewBox="0 0 19 18" fill="none" xmlns="http://www.w3.org/2000/svg">
<path fill-rule="evenodd" clip-rule="evenodd" d="M0.891602 1C0.891602 0.447716 1.33932 0 1.8916 0H17.8916C18.4439 0 18.8916 0.447715 18.8916 1V17C18.8916 17.5523 18.4439 18 17.8916 18H1.8916C1.33932 18 0.891602 17.5523 0.891602 17V1ZM16.1385 10.3914L12.954 7.25799C12.8718 7.17355 12.7806 7.10021 12.6895 7.02688L12.6895 7.02687C13.0184 7.78023 13.0695 8.62693 12.8295 9.42474L14.9118 11.4737C15.0686 11.6277 15.1931 11.8113 15.2781 12.0139C15.3631 12.2165 15.4068 12.434 15.4068 12.6538C15.4068 12.8735 15.3631 13.091 15.2781 13.2936C15.1931 13.4962 15.0686 13.6798 14.9118 13.8338C14.5921 14.1475 14.1619 14.323 13.714 14.3227C13.2807 14.3227 12.8473 14.1605 12.5162 13.8338L9.46051 10.8248C9.21013 10.581 9.04493 10.2631 8.98938 9.9181V9.91365C8.98715 9.91143 8.98715 9.90921 8.98715 9.90476C8.89826 9.38252 9.07382 8.8425 9.45828 8.46471C9.77732 8.14967 10.2077 7.97319 10.6561 7.97358C10.6917 7.97358 10.7228 7.9758 10.7539 7.97802L10.7539 7.97802C10.6872 7.73635 10.5594 7.51594 10.3828 7.33799L9.5094 6.48018C9.022 6.64325 8.57937 6.91779 8.21673 7.28198C7.85408 7.64617 7.58142 8.08996 7.42043 8.57804C7.12486 9.48252 7.2382 10.4648 7.73377 11.2737C7.87155 11.5026 8.03823 11.7137 8.23601 11.9071L11.4161 15.0383C12.7184 16.3206 14.8363 16.3206 16.1363 15.0383C17.4386 13.7582 17.4386 11.6715 16.1385 10.3914ZM5.09391 6.52685L7.17622 8.57804C6.93621 9.37363 6.98732 10.2225 7.31844 10.9737C7.22511 10.9004 7.13621 10.8248 7.05177 10.7403L3.87164 7.61133C3.2405 6.99131 2.89382 6.16461 2.8916 5.2868C2.8916 4.40898 3.2405 3.58451 3.8672 2.96226C4.49833 2.34224 5.33614 2 6.22951 2C7.12288 2 7.96069 2.34001 8.59183 2.96226L11.7742 6.09572C11.9697 6.28906 12.1386 6.50018 12.2742 6.72685C12.2759 6.7302 12.2781 6.73321 12.2809 6.73574V6.73797C12.7698 7.54689 12.8831 8.5247 12.5898 9.42696C12.4298 9.91809 12.1475 10.3714 11.7697 10.7426C11.4142 11.0959 10.9741 11.3626 10.4963 11.5226L9.6252 10.6648C9.44297 10.4826 9.31852 10.2626 9.25408 10.0181C9.26605 10.019 9.27835 10.0205 9.29086 10.022C9.31085 10.0245 9.33135 10.027 9.35186 10.027C9.79884 10.0259 10.2278 9.85048 10.5475 9.53808C10.9319 9.15806 11.1075 8.62026 11.0208 8.09802V8.09357L11.0186 8.09135C10.9651 7.74376 10.7997 7.4231 10.5475 7.17798L7.48956 4.16675C7.16955 3.85118 6.74287 3.67784 6.29174 3.67784C5.84376 3.67725 5.41353 3.85286 5.09391 4.16675C4.77168 4.48454 4.59834 4.90012 4.59834 5.3468C4.59834 5.79348 4.77168 6.2135 5.09391 6.52685Z" fill="#938C8C"/>
</svg>
