<svg width="18" height="18" viewBox="0 0 18 18" fill="none" xmlns="http://www.w3.org/2000/svg">
<rect x="0.5" y="0.5" width="17" height="17" rx="0.5" stroke="#938C8C"/>
<path fill-rule="evenodd" clip-rule="evenodd" d="M2.25 0H15.75C16.9909 0 18 1.00912 18 2.25V15.75C18 16.9909 16.9909 18 15.75 18H12.2666V11.8125H13.9541L15.0791 9H12.2666V6.75C12.2666 6.17919 12.6924 6.18248 13.2435 6.18674C13.292 6.18712 13.3414 6.1875 13.3916 6.1875H14.5166V3.375H12.2666C11.3715 3.375 10.5131 3.73058 9.88012 4.36351C9.24718 4.99645 8.8916 5.85489 8.8916 6.75V9H6.6416V11.8125H8.8916V18H2.25C1.00912 18 0 16.9909 0 15.75V2.25C0 1.00912 1.00912 0 2.25 0Z" fill="#938C8C"/>
</svg>
