<svg width="18" height="18" viewBox="0 0 18 18" fill="none" xmlns="http://www.w3.org/2000/svg">
<path d="M16.5688 0.000125846H1.32298C1.1516 -0.00225428 0.981437 0.0291482 0.822198 0.09254C0.662958 0.155932 0.517766 0.250071 0.394912 0.369581C0.272059 0.489092 0.173951 0.631633 0.106191 0.789063C0.0384316 0.946494 0.00234752 1.11573 0 1.28711V16.7129C0.00234752 16.8843 0.0384316 17.0535 0.106191 17.2109C0.173951 17.3684 0.272059 17.5109 0.394912 17.6304C0.517766 17.7499 0.662958 17.8441 0.822198 17.9075C0.981437 17.9708 1.1516 18.0023 1.32298 17.9999H16.5688C16.7401 18.0023 16.9103 17.9708 17.0696 17.9075C17.2288 17.8441 17.374 17.7499 17.4968 17.6304C17.6197 17.5109 17.7178 17.3684 17.7856 17.2109C17.8533 17.0535 17.8894 16.8843 17.8918 16.7129V1.28711C17.8894 1.11573 17.8533 0.946494 17.7856 0.789063C17.7178 0.631633 17.6197 0.489092 17.4968 0.369581C17.374 0.250071 17.2288 0.155932 17.0696 0.09254C16.9103 0.0291482 16.7401 -0.00225428 16.5688 0.000125846ZM5.42692 15.0659H2.72696V6.96603H5.42692V15.0659ZM4.07694 5.83204C3.70458 5.83204 3.34748 5.68412 3.08418 5.42083C2.82088 5.15753 2.67296 4.80042 2.67296 4.42806C2.67296 4.05571 2.82088 3.6986 3.08418 3.4353C3.34748 3.172 3.70458 3.02408 4.07694 3.02408C4.27467 3.00166 4.4749 3.02125 4.66452 3.08158C4.85415 3.1419 5.02889 3.2416 5.17732 3.37414C5.32574 3.50669 5.4445 3.66909 5.52581 3.85071C5.60712 4.03233 5.64915 4.22907 5.64915 4.42806C5.64915 4.62705 5.60712 4.8238 5.52581 5.00542C5.4445 5.18704 5.32574 5.34944 5.17732 5.48198C5.02889 5.61453 4.85415 5.71422 4.66452 5.77455C4.4749 5.83488 4.27467 5.85447 4.07694 5.83204ZM15.1648 15.0659H12.4648V10.719C12.4648 9.62999 12.0778 8.919 11.0968 8.919C10.7932 8.92122 10.4976 9.01645 10.2498 9.19185C10.002 9.36725 9.8139 9.6144 9.71087 9.89999C9.64044 10.1115 9.60992 10.3343 9.62087 10.557V15.0569H6.9209C6.9209 15.0569 6.9209 7.69502 6.9209 6.95703H9.62087V8.10001C9.86614 7.67441 10.2229 7.32379 10.6526 7.08591C11.0824 6.84803 11.5689 6.7319 12.0598 6.75003C13.8598 6.75003 15.1648 7.91102 15.1648 10.404V15.0659Z" fill="#938C8C"/>
</svg>
