<svg width="18" height="18" viewBox="0 0 18 18" fill="none" xmlns="http://www.w3.org/2000/svg">
<mask id="path-1-inside-1_3_12777" fill="white">
<rect width="18" height="18" rx="1"/>
</mask>
<rect width="18" height="18" rx="1" stroke="#938C8C" stroke-width="6" mask="url(#path-1-inside-1_3_12777)"/>
<path fill-rule="evenodd" clip-rule="evenodd" d="M3.83888 0H14.1611C16.2813 0 18 1.71872 18 3.83888V14.1611C18 16.2813 16.2813 18 14.1611 18H3.83888C1.71872 18 0 16.2813 0 14.1611V3.83888C0 1.71872 1.71872 0 3.83888 0ZM13.1248 6.60995C13.5534 6.55919 13.972 6.44454 14.3667 6.26983H14.3693C14.0793 6.70223 13.7102 7.08453 13.2883 7.38774C13.2936 7.48266 13.2936 7.57494 13.2936 7.66722C13.2936 10.5279 11.1184 13.8237 7.13714 13.8237C5.91376 13.8237 4.77739 13.4677 3.82031 12.8534C4.38699 12.922 4.96164 12.8781 5.51134 12.7243C6.06104 12.5705 6.575 12.3097 7.02377 11.957C6.57256 11.9479 6.13544 11.7982 5.77338 11.5288C5.41132 11.2594 5.1424 10.8837 5.00414 10.4541C5.32786 10.5166 5.66161 10.504 5.97968 10.4172C4.99096 10.2194 4.2448 9.34409 4.2448 8.29473V8.26836C4.54532 8.43602 4.88166 8.52915 5.22562 8.53993C4.76655 8.2345 4.44152 7.7652 4.31704 7.22804C4.19255 6.69089 4.27801 6.12646 4.55592 5.65023C5.09921 6.31829 5.77688 6.86468 6.54496 7.25395C7.31305 7.64321 8.15438 7.86666 9.01439 7.90979C8.97708 7.74811 8.9585 7.58267 8.95903 7.41674C8.95793 6.98215 9.08783 6.55731 9.33179 6.19765C9.57574 5.83798 9.92243 5.56019 10.3266 5.4005C10.7308 5.24082 11.1738 5.20665 11.5977 5.30246C12.0216 5.39828 12.4068 5.61962 12.703 5.93762C13.1864 5.84165 13.65 5.66423 14.074 5.41294C13.9158 5.91652 13.5731 6.34101 13.1248 6.60995Z" fill="#938C8C"/>
</svg>
